<?xml version="1.0" encoding="UTF-8" standalone="no"?>
<!DOCTYPE svg PUBLIC "-//W3C//DTD SVG 1.1//EN"
 "http://www.w3.org/Graphics/SVG/1.1/DTD/svg11.dtd">
<!-- Generated by graphviz version 9.0.0 (20231125.0833)
 -->
<!-- Title: SDG_core Pages: 1 -->
<svg width="2762pt" height="357pt"
 viewBox="0.00 0.00 2761.72 357.00" xmlns="http://www.w3.org/2000/svg" xmlns:xlink="http://www.w3.org/1999/xlink">
<g id="graph0" class="graph" transform="scale(1 1) rotate(0) translate(4 353)">
<title>SDG_core</title>
<polygon fill="white" stroke="none" points="-4,4 -4,-353 2757.72,-353 2757.72,4 -4,4"/>
<g id="clust1" class="cluster">
<title>cluster_attacker</title>
<path fill="none" stroke="#bbbbbb" d="M20,-122C20,-122 179.94,-122 179.94,-122 185.94,-122 191.94,-128 191.94,-134 191.94,-134 191.94,-199 191.94,-199 191.94,-205 185.94,-211 179.94,-211 179.94,-211 20,-211 20,-211 14,-211 8,-205 8,-199 8,-199 8,-134 8,-134 8,-128 14,-122 20,-122"/>
<text text-anchor="middle" x="99.97" y="-193.7" font-family="Times,serif" font-size="14.00">Attacker</text>
</g>
<g id="clust2" class="cluster">
<title>cluster_gov</title>
<path fill="none" stroke="#bbbbbb" d="M238.94,-122C238.94,-122 1434.34,-122 1434.34,-122 1440.34,-122 1446.34,-128 1446.34,-134 1446.34,-134 1446.34,-329 1446.34,-329 1446.34,-335 1440.34,-341 1434.34,-341 1434.34,-341 238.94,-341 238.94,-341 232.94,-341 226.94,-335 226.94,-329 226.94,-329 226.94,-134 226.94,-134 226.94,-128 232.94,-122 238.94,-122"/>
<text text-anchor="middle" x="836.64" y="-323.7" font-family="Times,serif" font-size="14.00">Governance / DAO</text>
</g>
<g id="clust3" class="cluster">
<title>cluster_anchor</title>
<path fill="none" stroke="#bbbbbb" d="M1204.4,-25C1204.4,-25 1930.36,-25 1930.36,-25 1936.36,-25 1942.36,-31 1942.36,-37 1942.36,-37 1942.36,-102 1942.36,-102 1942.36,-108 1936.36,-114 1930.36,-114 1930.36,-114 1204.4,-114 1204.4,-114 1198.4,-114 1192.4,-108 1192.4,-102 1192.4,-102 1192.4,-37 1192.4,-37 1192.4,-31 1198.4,-25 1204.4,-25"/>
<text text-anchor="middle" x="1567.38" y="-96.7" font-family="Times,serif" font-size="14.00">Anchor / Oracle</text>
</g>
<g id="clust4" class="cluster">
<title>cluster_pool</title>
<path fill="none" stroke="#bbbbbb" d="M2059.86,-8C2059.86,-8 2733.72,-8 2733.72,-8 2739.72,-8 2745.72,-14 2745.72,-20 2745.72,-20 2745.72,-150 2745.72,-150 2745.72,-156 2739.72,-162 2733.72,-162 2733.72,-162 2059.86,-162 2059.86,-162 2053.86,-162 2047.86,-156 2047.86,-150 2047.86,-150 2047.86,-20 2047.86,-20 2047.86,-14 2053.86,-8 2059.86,-8"/>
<text text-anchor="middle" x="2396.79" y="-144.7" font-family="Times,serif" font-size="14.00">Pools / Swaps / Synths</text>
</g>
<!-- attackUSDV -->
<g id="node1" class="node">
<title>attackUSDV</title>
<ellipse fill="#ffffff" stroke="black" cx="99.97" cy="-154" rx="83.97" ry="23.69"/>
<text text-anchor="middle" x="99.97" y="-157.25" font-family="Helvetica,sans-Serif" font-size="10.00">attackUSDV(uint256)</text>
<text text-anchor="middle" x="99.97" y="-144.5" font-family="Helvetica,sans-Serif" font-size="10.00">(attacker entry)</text>
</g>
<!-- newAddressProposal -->
<g id="node2" class="node">
<title>newAddressProposal</title>
<ellipse fill="#f2f2f2" stroke="black" cx="371.94" cy="-284" rx="137" ry="23.69"/>
<text text-anchor="middle" x="371.94" y="-287.25" font-family="Helvetica,sans-Serif" font-size="10.00">newAddressProposal(address,string)</text>
<text text-anchor="middle" x="371.94" y="-274.5" font-family="Helvetica,sans-Serif" font-size="10.00">(propose anchor change)</text>
</g>
<!-- attackUSDV&#45;&gt;newAddressProposal -->
<g id="edge1" class="edge">
<title>attackUSDV&#45;&gt;newAddressProposal</title>
<path fill="none" stroke="#555555" d="M123.9,-177.04C147.65,-199.56 186.83,-233.12 226.94,-252 237.3,-256.88 248.43,-261.03 259.75,-264.55"/>
<polygon fill="#555555" stroke="#555555" points="258.61,-267.87 269.19,-267.32 260.58,-261.15 258.61,-267.87"/>
<text text-anchor="middle" x="209.44" y="-248.7" font-family="Helvetica,sans-Serif" font-size="9.00">call</text>
</g>
<!-- voteProposal -->
<g id="node4" class="node">
<title>voteProposal</title>
<ellipse fill="#f2f2f2" stroke="black" cx="371.94" cy="-154" rx="87.68" ry="23.69"/>
<text text-anchor="middle" x="371.94" y="-157.25" font-family="Helvetica,sans-Serif" font-size="10.00">voteProposal(uint256)</text>
<text text-anchor="middle" x="371.94" y="-144.5" font-family="Helvetica,sans-Serif" font-size="10.00">(vote / execute)</text>
</g>
<!-- attackUSDV&#45;&gt;voteProposal -->
<g id="edge2" class="edge">
<title>attackUSDV&#45;&gt;voteProposal</title>
<path fill="none" stroke="#555555" d="M184.17,-154C212.07,-154 243.45,-154 272.42,-154"/>
<polygon fill="#555555" stroke="#555555" points="272.29,-157.5 282.29,-154 272.29,-150.5 272.29,-157.5"/>
<text text-anchor="middle" x="209.44" y="-156.7" font-family="Helvetica,sans-Serif" font-size="9.00">call</text>
</g>
<!-- finaliseProposal -->
<g id="node6" class="node">
<title>finaliseProposal</title>
<ellipse fill="#f2f2f2" stroke="black" cx="1019.17" cy="-159" rx="97.23" ry="23.69"/>
<text text-anchor="middle" x="1019.17" y="-162.25" font-family="Helvetica,sans-Serif" font-size="10.00">finaliseProposal(uint256)</text>
<text text-anchor="middle" x="1019.17" y="-149.5" font-family="Helvetica,sans-Serif" font-size="10.00">(finalise)</text>
</g>
<!-- attackUSDV&#45;&gt;finaliseProposal -->
<g id="edge3" class="edge">
<title>attackUSDV&#45;&gt;finaliseProposal</title>
<path fill="none" stroke="#555555" d="M156.49,-136.18C178.21,-130.07 203.51,-124.02 226.94,-121 256.62,-117.18 828.01,-119.01 854.44,-122 883.71,-125.31 915.39,-131.77 943.01,-138.38"/>
<polygon fill="#555555" stroke="#555555" points="942.17,-141.78 952.71,-140.76 943.83,-134.98 942.17,-141.78"/>
<text text-anchor="middle" x="542.69" y="-120.7" font-family="Helvetica,sans-Serif" font-size="9.00">call</text>
</g>
<!-- newGrantProposal -->
<g id="node3" class="node">
<title>newGrantProposal</title>
<ellipse fill="#f2f2f2" stroke="black" cx="371.94" cy="-219" rx="134.88" ry="23.69"/>
<text text-anchor="middle" x="371.94" y="-222.25" font-family="Helvetica,sans-Serif" font-size="10.00">newGrantProposal(address,uint256)</text>
<text text-anchor="middle" x="371.94" y="-209.5" font-family="Helvetica,sans-Serif" font-size="10.00">(optional: propose grant)</text>
</g>
<!-- govChecks -->
<g id="node5" class="node">
<title>govChecks</title>
<path fill="#ffffff" stroke="black" d="M703.78,-194.69C703.78,-194.69 588.11,-166.81 588.11,-166.81 582.27,-165.41 582.27,-162.59 588.11,-161.19 588.11,-161.19 703.78,-133.31 703.78,-133.31 709.61,-131.91 721.27,-131.91 727.11,-133.31 727.11,-133.31 842.78,-161.19 842.78,-161.19 848.61,-162.59 848.61,-165.41 842.78,-166.81 842.78,-166.81 727.11,-194.69 727.11,-194.69 721.27,-196.09 709.61,-196.09 703.78,-194.69"/>
<text text-anchor="middle" x="715.44" y="-167.25" font-family="Helvetica,sans-Serif" font-size="10.00">hasQuorum / hasMajority</text>
<text text-anchor="middle" x="715.44" y="-154.5" font-family="Helvetica,sans-Serif" font-size="10.00">(isEqual guards)</text>
</g>
<!-- voteProposal&#45;&gt;govChecks -->
<g id="edge4" class="edge">
<title>voteProposal&#45;&gt;govChecks</title>
<path fill="none" stroke="#555555" d="M459.56,-156.54C495.51,-157.59 538.11,-158.84 578.08,-160.01"/>
<polygon fill="#555555" stroke="#555555" points="577.94,-163.5 588.04,-160.3 578.15,-156.51 577.94,-163.5"/>
<text text-anchor="middle" x="542.69" y="-161.7" font-family="Helvetica,sans-Serif" font-size="9.00">control</text>
</g>
<!-- govChecks&#45;&gt;finaliseProposal -->
<g id="edge5" class="edge">
<title>govChecks&#45;&gt;finaliseProposal</title>
<path fill="none" stroke="#555555" d="M847.47,-161.83C868.44,-161.48 889.93,-161.13 910.28,-160.79"/>
<polygon fill="#555555" stroke="#555555" points="910.33,-164.29 920.27,-160.62 910.22,-157.29 910.33,-164.29"/>
<text text-anchor="middle" x="888.19" y="-163.7" font-family="Helvetica,sans-Serif" font-size="9.00">control</text>
</g>
<!-- moveRewardAddress -->
<g id="node7" class="node">
<title>moveRewardAddress</title>
<ellipse fill="#f2f2f2" stroke="black" cx="1322.55" cy="-154" rx="115.79" ry="23.69"/>
<text text-anchor="middle" x="1322.55" y="-157.25" font-family="Helvetica,sans-Serif" font-size="10.00">moveRewardAddress(uint256)</text>
<text text-anchor="middle" x="1322.55" y="-144.5" font-family="Helvetica,sans-Serif" font-size="10.00">(state change)</text>
</g>
<!-- finaliseProposal&#45;&gt;moveRewardAddress -->
<g id="edge8" class="edge">
<title>finaliseProposal&#45;&gt;moveRewardAddress</title>
<path fill="none" stroke="#555555" d="M1116.36,-157.4C1141.53,-156.99 1169.05,-156.53 1195.52,-156.09"/>
<polygon fill="#555555" stroke="#555555" points="1195.34,-159.59 1205.28,-155.93 1195.22,-152.6 1195.34,-159.59"/>
<text text-anchor="middle" x="1158.4" y="-159.7" font-family="Helvetica,sans-Serif" font-size="9.00">call / state</text>
</g>
<!-- moveUtils -->
<g id="node8" class="node">
<title>moveUtils</title>
<ellipse fill="#f2f2f2" stroke="black" cx="1322.55" cy="-219" rx="78.14" ry="23.69"/>
<text text-anchor="middle" x="1322.55" y="-222.25" font-family="Helvetica,sans-Serif" font-size="10.00">moveUtils(uint256)</text>
<text text-anchor="middle" x="1322.55" y="-209.5" font-family="Helvetica,sans-Serif" font-size="10.00">(state change)</text>
</g>
<!-- finaliseProposal&#45;&gt;moveUtils -->
<g id="edge7" class="edge">
<title>finaliseProposal&#45;&gt;moveUtils</title>
<path fill="none" stroke="#555555" d="M1095.44,-173.99C1141.19,-183.09 1199.42,-194.69 1245.33,-203.83"/>
<polygon fill="#555555" stroke="#555555" points="1244.45,-207.22 1254.94,-205.74 1245.82,-200.35 1244.45,-207.22"/>
<text text-anchor="middle" x="1158.4" y="-192.7" font-family="Helvetica,sans-Serif" font-size="9.00">call / state</text>
</g>
<!-- grantFunds -->
<g id="node9" class="node">
<title>grantFunds</title>
<ellipse fill="#f2f2f2" stroke="black" cx="1322.55" cy="-284" rx="80.79" ry="23.69"/>
<text text-anchor="middle" x="1322.55" y="-287.25" font-family="Helvetica,sans-Serif" font-size="10.00">grantFunds(uint256)</text>
<text text-anchor="middle" x="1322.55" y="-274.5" font-family="Helvetica,sans-Serif" font-size="10.00">(value out)</text>
</g>
<!-- finaliseProposal&#45;&gt;grantFunds -->
<g id="edge9" class="edge">
<title>finaliseProposal&#45;&gt;grantFunds</title>
<path fill="none" stroke="#555555" d="M1055.19,-181.33C1089.13,-202.14 1142.64,-232.76 1192.4,-252 1208.57,-258.25 1226.36,-263.59 1243.43,-268.01"/>
<polygon fill="#555555" stroke="#555555" points="1242.5,-271.39 1253.05,-270.42 1244.2,-264.6 1242.5,-271.39"/>
<text text-anchor="middle" x="1158.4" y="-248.7" font-family="Helvetica,sans-Serif" font-size="9.00">call / value</text>
</g>
<!-- replaceAnchor -->
<g id="node10" class="node">
<title>replaceAnchor</title>
<ellipse fill="#f2f2f2" stroke="black" cx="1322.55" cy="-57" rx="122.15" ry="23.69"/>
<text text-anchor="middle" x="1322.55" y="-60.25" font-family="Helvetica,sans-Serif" font-size="10.00">replaceAnchor(address,address)</text>
<text text-anchor="middle" x="1322.55" y="-47.5" font-family="Helvetica,sans-Serif" font-size="10.00">(anchor swap)</text>
</g>
<!-- finaliseProposal&#45;&gt;replaceAnchor -->
<g id="edge6" class="edge">
<title>finaliseProposal&#45;&gt;replaceAnchor</title>
<path fill="none" stroke="#555555" d="M1077.21,-139.69C1126.06,-123.16 1196.67,-99.26 1249.44,-81.41"/>
<polygon fill="#555555" stroke="#555555" points="1250.29,-84.81 1258.64,-78.29 1248.05,-78.18 1250.29,-84.81"/>
<text text-anchor="middle" x="1158.4" y="-122.7" font-family="Helvetica,sans-Serif" font-size="9.00">call / state</text>
</g>
<!-- updateAnchorPrice -->
<g id="node11" class="node">
<title>updateAnchorPrice</title>
<ellipse fill="#f2f2f2" stroke="black" cx="1604.07" cy="-57" rx="108.36" ry="23.69"/>
<text text-anchor="middle" x="1604.07" y="-60.25" font-family="Helvetica,sans-Serif" font-size="10.00">updateAnchorPrice(address)</text>
<text text-anchor="middle" x="1604.07" y="-47.5" font-family="Helvetica,sans-Serif" font-size="10.00">(update price)</text>
</g>
<!-- replaceAnchor&#45;&gt;updateAnchorPrice -->
<g id="edge10" class="edge">
<title>replaceAnchor&#45;&gt;updateAnchorPrice</title>
<path fill="none" stroke="#555555" d="M1444.93,-57C1457.92,-57 1471.13,-57 1484.09,-57"/>
<polygon fill="#555555" stroke="#555555" points="1483.89,-60.5 1493.89,-57 1483.89,-53.5 1483.89,-60.5"/>
<text text-anchor="middle" x="1470.2" y="-59.7" font-family="Helvetica,sans-Serif" font-size="9.00">call</text>
</g>
<!-- getAnchorPrice -->
<g id="node12" class="node">
<title>getAnchorPrice</title>
<ellipse fill="#f2f2f2" stroke="black" cx="1865.77" cy="-57" rx="68.59" ry="23.69"/>
<text text-anchor="middle" x="1865.77" y="-60.25" font-family="Helvetica,sans-Serif" font-size="10.00">getAnchorPrice()</text>
<text text-anchor="middle" x="1865.77" y="-47.5" font-family="Helvetica,sans-Serif" font-size="10.00">(price read)</text>
</g>
<!-- updateAnchorPrice&#45;&gt;getAnchorPrice -->
<g id="edge11" class="edge">
<title>updateAnchorPrice&#45;&gt;getAnchorPrice</title>
<path fill="none" stroke="#555555" d="M1712.57,-57C1736.92,-57 1762.36,-57 1785.31,-57"/>
<polygon fill="#555555" stroke="#555555" points="1785.19,-60.5 1795.19,-57 1785.19,-53.5 1785.19,-60.5"/>
<text text-anchor="middle" x="1754.8" y="-59.7" font-family="Helvetica,sans-Serif" font-size="9.00">data: price</text>
</g>
<!-- swapWithSynthsWithLimit -->
<g id="node13" class="node">
<title>swapWithSynthsWithLimit</title>
<ellipse fill="#f2f2f2" stroke="black" cx="2169.53" cy="-57" rx="113.67" ry="23.69"/>
<text text-anchor="middle" x="2169.53" y="-60.25" font-family="Helvetica,sans-Serif" font-size="10.00">swapWithSynthsWithLimit(...)</text>
<text text-anchor="middle" x="2169.53" y="-47.5" font-family="Helvetica,sans-Serif" font-size="10.00">(price&#45;impacting swap)</text>
</g>
<!-- getAnchorPrice&#45;&gt;swapWithSynthsWithLimit -->
<g id="edge12" class="edge">
<title>getAnchorPrice&#45;&gt;swapWithSynthsWithLimit</title>
<path fill="none" stroke="#555555" d="M1934.49,-57C1966.91,-57 2006.78,-57 2044.37,-57"/>
<polygon fill="#555555" stroke="#555555" points="2043.91,-60.5 2053.91,-57 2043.91,-53.5 2043.91,-60.5"/>
<text text-anchor="middle" x="1995.11" y="-59.7" font-family="Helvetica,sans-Serif" font-size="9.00">data: bounds/price</text>
</g>
<!-- mintSynth -->
<g id="node14" class="node">
<title>mintSynth</title>
<ellipse fill="#f2f2f2" stroke="black" cx="2440.71" cy="-57" rx="58.51" ry="23.69"/>
<text text-anchor="middle" x="2440.71" y="-60.25" font-family="Helvetica,sans-Serif" font-size="10.00">mintSynth(...)</text>
<text text-anchor="middle" x="2440.71" y="-47.5" font-family="Helvetica,sans-Serif" font-size="10.00">(mint path)</text>
</g>
<!-- swapWithSynthsWithLimit&#45;&gt;mintSynth -->
<g id="edge13" class="edge">
<title>swapWithSynthsWithLimit&#45;&gt;mintSynth</title>
<path fill="none" stroke="#555555" d="M2283.51,-57C2312.96,-57 2343.83,-57 2370.28,-57"/>
<polygon fill="#555555" stroke="#555555" points="2370.2,-60.5 2380.2,-57 2370.2,-53.5 2370.2,-60.5"/>
<text text-anchor="middle" x="2332.69" y="-59.7" font-family="Helvetica,sans-Serif" font-size="9.00">call / dataflow</text>
</g>
<!-- burnSynth -->
<g id="node15" class="node">
<title>burnSynth</title>
<ellipse fill="#f2f2f2" stroke="black" cx="2672.85" cy="-40" rx="57.98" ry="23.69"/>
<text text-anchor="middle" x="2672.85" y="-43.25" font-family="Helvetica,sans-Serif" font-size="10.00">burnSynth(...)</text>
<text text-anchor="middle" x="2672.85" y="-30.5" font-family="Helvetica,sans-Serif" font-size="10.00">(burn path)</text>
</g>
<!-- mintSynth&#45;&gt;burnSynth -->
<g id="edge15" class="edge">
<title>mintSynth&#45;&gt;burnSynth</title>
<path fill="none" stroke="#555555" stroke-dasharray="5,2" d="M2498.59,-52.8C2530.64,-50.43 2570.87,-47.46 2604.49,-44.98"/>
<polygon fill="#555555" stroke="#555555" points="2604.39,-48.49 2614.1,-44.27 2603.87,-41.51 2604.39,-48.49"/>
<text text-anchor="middle" x="2553.59" y="-54.7" font-family="Helvetica,sans-Serif" font-size="9.00">optional unwind</text>
</g>
<!-- transferOut -->
<g id="node16" class="node">
<title>transferOut</title>
<ellipse fill="#f2f2f2" stroke="black" cx="2672.85" cy="-105" rx="64.88" ry="23.69"/>
<text text-anchor="middle" x="2672.85" y="-108.25" font-family="Helvetica,sans-Serif" font-size="10.00">transferOut(...)</text>
<text text-anchor="middle" x="2672.85" y="-95.5" font-family="Helvetica,sans-Serif" font-size="10.00">(value transfer)</text>
</g>
<!-- mintSynth&#45;&gt;transferOut -->
<g id="edge14" class="edge">
<title>mintSynth&#45;&gt;transferOut</title>
<path fill="none" stroke="#555555" d="M2493.35,-67.77C2526.24,-74.63 2569.18,-83.59 2604.69,-90.99"/>
<polygon fill="#555555" stroke="#555555" points="2603.96,-94.42 2614.46,-93.03 2605.39,-87.56 2603.96,-94.42"/>
<text text-anchor="middle" x="2553.59" y="-89.7" font-family="Helvetica,sans-Serif" font-size="9.00">value out</text>
</g>
</g>
</svg>
